<svg width="25" height="24" viewBox="0 0 25 24" fill="none" xmlns="http://www.w3.org/2000/svg">
<path d="M12.5 1.875C10.4975 1.875 8.5399 2.46882 6.87486 3.58137C5.20981 4.69392 3.91206 6.27523 3.14572 8.12533C2.37939 9.97543 2.17888 12.0112 2.56955 13.9753C2.96023 15.9393 3.92454 17.7435 5.34055 19.1595C6.75656 20.5755 8.56066 21.5398 10.5247 21.9305C12.4888 22.3211 14.5246 22.1206 16.3747 21.3543C18.2248 20.5879 19.8061 19.2902 20.9186 17.6251C22.0312 15.9601 22.625 14.0025 22.625 12C22.622 9.3156 21.5543 6.74199 19.6562 4.84383C17.758 2.94567 15.1844 1.87798 12.5 1.875ZM7.95969 18.4284C8.48195 17.7143 9.16528 17.1335 9.95418 16.7331C10.7431 16.3327 11.6153 16.124 12.5 16.124C13.3847 16.124 14.2569 16.3327 15.0458 16.7331C15.8347 17.1335 16.5181 17.7143 17.0403 18.4284C15.7134 19.3695 14.1268 19.875 12.5 19.875C10.8732 19.875 9.28665 19.3695 7.95969 18.4284ZM9.875 11.25C9.875 10.7308 10.029 10.2233 10.3174 9.79163C10.6058 9.35995 11.0158 9.0235 11.4955 8.82482C11.9751 8.62614 12.5029 8.57415 13.0121 8.67544C13.5213 8.77672 13.989 9.02673 14.3562 9.39384C14.7233 9.76096 14.9733 10.2287 15.0746 10.7379C15.1759 11.2471 15.1239 11.7749 14.9252 12.2545C14.7265 12.7342 14.3901 13.1442 13.9584 13.4326C13.5267 13.721 13.0192 13.875 12.5 13.875C11.8038 13.875 11.1361 13.5984 10.6438 13.1062C10.1516 12.6139 9.875 11.9462 9.875 11.25ZM18.6875 16.8694C17.9583 15.9419 17.0289 15.1914 15.9688 14.6737C16.6444 13.9896 17.1026 13.1208 17.2858 12.1769C17.4689 11.2329 17.3688 10.2558 16.998 9.36861C16.6273 8.4814 16.0024 7.72364 15.202 7.19068C14.4017 6.65771 13.4616 6.37334 12.5 6.37334C11.5384 6.37334 10.5983 6.65771 9.79797 7.19068C8.99762 7.72364 8.37275 8.4814 8.00198 9.36861C7.63121 10.2558 7.5311 11.2329 7.71424 12.1769C7.89739 13.1208 8.35561 13.9896 9.03125 14.6737C7.9711 15.1914 7.04168 15.9419 6.3125 16.8694C5.39661 15.7083 4.82614 14.3129 4.6664 12.8427C4.50665 11.3725 4.7641 9.88711 5.40925 8.55644C6.05441 7.22578 7.0612 6.10366 8.31439 5.31855C9.56757 4.53343 11.0165 4.11703 12.4953 4.11703C13.9741 4.11703 15.4231 4.53343 16.6762 5.31855C17.9294 6.10366 18.9362 7.22578 19.5814 8.55644C20.2265 9.88711 20.484 11.3725 20.3242 12.8427C20.1645 14.3129 19.594 15.7083 18.6781 16.8694H18.6875Z" fill="#999999"/>
</svg>
