<svg xmlns="http://www.w3.org/2000/svg" width="52" height="52" fill="none" viewBox="0 0 52 52"><rect width="52" height="52" fill="#1A1A1A" rx="10"/><path fill="#fff" d="M27.125 25.625V34.25C27.125 34.5484 27.0065 34.8345 26.7955 35.0455C26.5845 35.2565 26.2984 35.375 26 35.375C25.7016 35.375 25.4155 35.2565 25.2045 35.0455C24.9935 34.8345 24.875 34.5484 24.875 34.25V25.625C24.875 25.3266 24.9935 25.0405 25.2045 24.8295C25.4155 24.6185 25.7016 24.5 26 24.5C26.2984 24.5 26.5845 24.6185 26.7955 24.8295C27.0065 25.0405 27.125 25.3266 27.125 25.625ZM32.75 32C32.4516 32 32.1655 32.1185 31.9545 32.3295C31.7435 32.5405 31.625 32.8266 31.625 33.125V34.25C31.625 34.5484 31.7435 34.8345 31.9545 35.0455C32.1655 35.2565 32.4516 35.375 32.75 35.375C33.0484 35.375 33.3345 35.2565 33.5455 35.0455C33.7565 34.8345 33.875 34.5484 33.875 34.25V33.125C33.875 32.8266 33.7565 32.5405 33.5455 32.3295C33.3345 32.1185 33.0484 32 32.75 32ZM35 28.25H33.875V17.75C33.875 17.4516 33.7565 17.1655 33.5455 16.9545C33.3345 16.7435 33.0484 16.625 32.75 16.625C32.4516 16.625 32.1655 16.7435 31.9545 16.9545C31.7435 17.1655 31.625 17.4516 31.625 17.75V28.25H30.5C30.2016 28.25 29.9155 28.3685 29.7045 28.5795C29.4935 28.7905 29.375 29.0766 29.375 29.375C29.375 29.6734 29.4935 29.9595 29.7045 30.1705C29.9155 30.3815 30.2016 30.5 30.5 30.5H35C35.2984 30.5 35.5845 30.3815 35.7955 30.1705C36.0065 29.9595 36.125 29.6734 36.125 29.375C36.125 29.0766 36.0065 28.7905 35.7955 28.5795C35.5845 28.3685 35.2984 28.25 35 28.25ZM19.25 29C18.9516 29 18.6655 29.1185 18.4545 29.3295C18.2435 29.5405 18.125 29.8266 18.125 30.125V34.25C18.125 34.5484 18.2435 34.8345 18.4545 35.0455C18.6655 35.2565 18.9516 35.375 19.25 35.375C19.5484 35.375 19.8345 35.2565 20.0455 35.0455C20.2565 34.8345 20.375 34.5484 20.375 34.25V30.125C20.375 29.8266 20.2565 29.5405 20.0455 29.3295C19.8345 29.1185 19.5484 29 19.25 29ZM21.5 25.25H20.375V17.75C20.375 17.4516 20.2565 17.1655 20.0455 16.9545C19.8345 16.7435 19.5484 16.625 19.25 16.625C18.9516 16.625 18.6655 16.7435 18.4545 16.9545C18.2435 17.1655 18.125 17.4516 18.125 17.75V25.25H17C16.7016 25.25 16.4155 25.3685 16.2045 25.5795C15.9935 25.7905 15.875 26.0766 15.875 26.375C15.875 26.6734 15.9935 26.9595 16.2045 27.1705C16.4155 27.3815 16.7016 27.5 17 27.5H21.5C21.7984 27.5 22.0845 27.3815 22.2955 27.1705C22.5065 26.9595 22.625 26.6734 22.625 26.375C22.625 26.0766 22.5065 25.7905 22.2955 25.5795C22.0845 25.3685 21.7984 25.25 21.5 25.25ZM28.25 20.75H27.125V17.75C27.125 17.4516 27.0065 17.1655 26.7955 16.9545C26.5845 16.7435 26.2984 16.625 26 16.625C25.7016 16.625 25.4155 16.7435 25.2045 16.9545C24.9935 17.1655 24.875 17.4516 24.875 17.75V20.75H23.75C23.4516 20.75 23.1655 20.8685 22.9545 21.0795C22.7435 21.2905 22.625 21.5766 22.625 21.875C22.625 22.1734 22.7435 22.4595 22.9545 22.6705C23.1655 22.8815 23.4516 23 23.75 23H28.25C28.5484 23 28.8345 22.8815 29.0455 22.6705C29.2565 22.4595 29.375 22.1734 29.375 21.875C29.375 21.5766 29.2565 21.2905 29.0455 21.0795C28.8345 20.8685 28.5484 20.75 28.25 20.75Z"/></svg>